<svg width="24" height="24" viewBox="0 0 24 24" fill="none" xmlns="http://www.w3.org/2000/svg">
<path d="M12.0001 0.504379C11.8957 0.504379 11.7917 0.537492 11.7029 0.604692L0.66287 9.22125C0.45647 9.38445 0.418107 9.68599 0.581307 9.89719C0.744507 10.1036 1.04605 10.142 1.25725 9.97875L1.92006 9.46125V22.08C1.92006 22.344 2.13606 22.56 2.40006 22.56H9.12006V13.92H14.8801V22.56H21.6001C21.8641 22.56 22.0801 22.344 22.0801 22.08V9.46125L22.7429 9.97875C22.8341 10.046 22.9345 10.08 23.0401 10.08C23.1841 10.08 23.3228 10.0172 23.4188 9.89719C23.582 9.68599 23.5436 9.38445 23.3372 9.22125L12.2972 0.604692C12.2084 0.537492 12.1045 0.504379 12.0001 0.504379ZM16.8001 2.4V2.90438L19.6801 5.15063V2.4H16.8001Z" fill="black"/>
</svg>
