<svg width="22" height="16" viewBox="0 0 22 16" fill="none" xmlns="http://www.w3.org/2000/svg">
<path d="M20.8501 4.85001V12.85C20.8501 13.9546 19.9547 14.85 18.8501 14.85H2.8501C1.74553 14.85 0.850098 13.9546 0.850098 12.85V2.85001C0.850098 1.74544 1.74553 0.850006 2.8501 0.850006H18.8501C19.9547 0.850006 20.8501 1.74544 20.8501 2.85001V4.85001ZM20.8501 4.85001H4.8501" stroke="black" stroke-width="1.7" stroke-linecap="round" stroke-linejoin="round"/>
<path d="M15.3501 9.23191C15.6155 8.99441 15.9659 8.85001 16.3501 8.85001C17.1785 8.85001 17.8501 9.52161 17.8501 10.35C17.8501 11.1784 17.1785 11.85 16.3501 11.85C15.9659 11.85 15.6155 11.7056 15.3501 11.4681" stroke="black" stroke-width="1.7" stroke-linecap="round" stroke-linejoin="round"/>
<path d="M15.3501 9.23191C15.0847 8.99441 14.7343 8.85001 14.3501 8.85001C13.5217 8.85001 12.8501 9.52161 12.8501 10.35C12.8501 11.1784 13.5217 11.85 14.3501 11.85C14.7343 11.85 15.0847 11.7056 15.3501 11.4681" stroke="black" stroke-width="1.7" stroke-linecap="round" stroke-linejoin="round"/>
</svg>
