<svg width="40" height="18" viewBox="0 0 40 18" fill="none" xmlns="http://www.w3.org/2000/svg">
<g clip-path="url(#clip0_297_1493)">
<path fill-rule="evenodd" clip-rule="evenodd" d="M13.6634 16.0847C13.7115 16.0847 13.7512 16.0866 13.7824 16.0906C13.8136 16.0945 13.8387 16.1001 13.8576 16.1073C13.8764 16.1146 13.8898 16.1231 13.8976 16.1329C13.9054 16.1428 13.9093 16.1543 13.9093 16.1674V17.9212C13.9093 17.9343 13.9054 17.9458 13.8976 17.9557C13.8898 17.9655 13.8764 17.9737 13.8576 17.9803C13.8387 17.9869 13.8136 17.9918 13.7824 17.9951C13.7637 17.997 13.7419 17.9984 13.7171 17.9992L13.6634 18L13.6097 17.9992L13.5641 17.9968L13.5443 17.9951C13.5131 17.9918 13.488 17.9869 13.4692 17.9803C13.4503 17.9737 13.437 17.9655 13.4292 17.9557C13.4214 17.9458 13.4174 17.9343 13.4174 17.9212V16.1674C13.4174 16.1543 13.4214 16.1428 13.4292 16.1329C13.437 16.1231 13.4503 16.1146 13.4692 16.1073C13.488 16.1001 13.5131 16.0945 13.5443 16.0906C13.5755 16.0866 13.6152 16.0847 13.6634 16.0847ZM12.362 15.5726L12.4159 15.5734C12.4409 15.5742 12.4629 15.5755 12.4821 15.5775C12.5139 15.5808 12.539 15.5861 12.5572 15.5933C12.5754 15.6005 12.5884 15.6094 12.5962 15.6199C12.604 15.6304 12.6079 15.6422 12.6079 15.6554V16.0475H12.9866C12.9996 16.0475 13.011 16.0508 13.0207 16.0573C13.0305 16.0639 13.0386 16.0747 13.0451 16.0898C13.0516 16.105 13.0565 16.1256 13.0598 16.1519C13.063 16.1782 13.0646 16.2104 13.0646 16.2485C13.0646 16.3207 13.0581 16.3723 13.0451 16.4032C13.0321 16.434 13.0132 16.4495 12.9885 16.4495H12.6079V17.2751C12.6079 17.371 12.6229 17.4429 12.6528 17.4909C12.6828 17.5388 12.7361 17.5628 12.8129 17.5628C12.8389 17.5628 12.8623 17.5605 12.8831 17.5559C12.9039 17.5513 12.9225 17.5461 12.9387 17.5401L12.9797 17.5244C12.9908 17.5198 13.0009 17.5175 13.01 17.5175C13.0178 17.5175 13.0253 17.5198 13.0324 17.5244C13.0396 17.529 13.0451 17.5382 13.049 17.552C13.0529 17.5658 13.0565 17.5845 13.0598 17.6081C13.063 17.6318 13.0646 17.662 13.0646 17.6988C13.0646 17.7566 13.0611 17.8009 13.0539 17.8318C13.0467 17.8626 13.0373 17.8843 13.0256 17.8968C13.0139 17.9093 12.9966 17.9204 12.9739 17.9303C12.9511 17.9402 12.9244 17.9487 12.8939 17.9559C12.8633 17.9631 12.8301 17.9687 12.7943 17.9727C12.7585 17.9766 12.7224 17.9786 12.686 17.9786C12.5884 17.9786 12.5038 17.9661 12.4323 17.9411C12.3607 17.9162 12.3015 17.8778 12.2547 17.8259C12.2078 17.774 12.1734 17.7086 12.1512 17.6298C12.1291 17.551 12.1181 17.4577 12.1181 17.35V16.4495H11.9092C11.8845 16.4495 11.8656 16.434 11.8526 16.4032C11.8396 16.3723 11.8331 16.3207 11.8331 16.2485C11.8331 16.2104 11.8347 16.1782 11.838 16.1519C11.8412 16.1256 11.8461 16.105 11.8526 16.0898C11.8591 16.0747 11.8673 16.0639 11.877 16.0573C11.8868 16.0508 11.8982 16.0475 11.9112 16.0475H12.1181V15.6554C12.1181 15.6422 12.1216 15.6304 12.1288 15.6199C12.136 15.6094 12.149 15.6005 12.1678 15.5933C12.1867 15.5861 12.2121 15.5808 12.2439 15.5775C12.2758 15.5742 12.3152 15.5726 12.362 15.5726ZM25.8471 15.3207C25.907 15.3207 25.9668 15.3253 26.0267 15.3345C26.0865 15.3437 26.1425 15.3562 26.1945 15.3719C26.2466 15.3877 26.2927 15.4054 26.3331 15.4251C26.3734 15.4448 26.4001 15.4612 26.4131 15.4744C26.4261 15.4875 26.4349 15.4987 26.4394 15.5079C26.444 15.5171 26.4479 15.5292 26.4512 15.5443C26.4544 15.5594 26.4567 15.5785 26.458 15.6015L26.4595 15.6402L26.4599 15.6872L26.4592 15.7399L26.457 15.7838C26.4551 15.81 26.4518 15.8317 26.4473 15.8488C26.4427 15.8659 26.4362 15.8783 26.4277 15.8862C26.4193 15.8941 26.4079 15.898 26.3936 15.898C26.3817 15.898 26.3639 15.8917 26.3402 15.8789L26.3253 15.8705C26.294 15.8521 26.2557 15.832 26.2101 15.8104C26.1646 15.7887 26.1119 15.769 26.052 15.7512C25.9922 15.7335 25.9265 15.7246 25.8549 15.7246C25.799 15.7246 25.7502 15.7315 25.7085 15.7453C25.6669 15.7591 25.6321 15.7782 25.6041 15.8025C25.5761 15.8268 25.5553 15.856 25.5417 15.8902C25.528 15.9243 25.5212 15.9604 25.5212 15.9985C25.5212 16.055 25.5365 16.104 25.567 16.1453C25.5976 16.1867 25.6386 16.2235 25.69 16.2557C25.7414 16.2879 25.7996 16.3181 25.8647 16.3463C25.9297 16.3746 25.9961 16.4045 26.0637 16.436C26.1314 16.4675 26.1978 16.5033 26.2628 16.5434C26.3279 16.5834 26.3858 16.6314 26.4365 16.6872C26.4873 16.7431 26.5282 16.8087 26.5595 16.8843C26.5907 16.9598 26.6063 17.0488 26.6063 17.1513C26.6063 17.2853 26.5816 17.4029 26.5322 17.504C26.4827 17.6052 26.4157 17.6896 26.3311 17.7572C26.2466 17.8249 26.1477 17.8758 26.0345 17.9099C25.9213 17.9441 25.8003 17.9612 25.6715 17.9612C25.5843 17.9612 25.5033 17.9539 25.4285 17.9395C25.3537 17.925 25.2876 17.9076 25.2304 17.8873C25.1731 17.8669 25.1253 17.8456 25.0869 17.8232C25.0485 17.8009 25.0209 17.7812 25.004 17.7641C24.9871 17.747 24.975 17.7224 24.9679 17.6902C24.9607 17.658 24.9571 17.6117 24.9571 17.5513C24.9571 17.5106 24.9584 17.4764 24.961 17.4488C24.9636 17.4212 24.9679 17.3989 24.9737 17.3818C24.9796 17.3648 24.9874 17.3526 24.9971 17.3454C25.0069 17.3382 25.0183 17.3345 25.0313 17.3345C25.0465 17.3345 25.0669 17.3421 25.0924 17.3571L25.1084 17.3671C25.1416 17.3887 25.1842 17.4127 25.2362 17.439C25.2883 17.4653 25.3504 17.4892 25.4226 17.5109C25.4948 17.5326 25.5784 17.5434 25.6734 17.5434C25.7359 17.5434 25.7918 17.5359 25.8413 17.5208C25.8907 17.5056 25.9327 17.4843 25.9671 17.4567C26.0016 17.4291 26.028 17.395 26.0462 17.3542C26.0644 17.3135 26.0735 17.2682 26.0735 17.2183C26.0735 17.1605 26.0579 17.1109 26.0267 17.0695C25.9954 17.0281 25.9548 16.9913 25.9047 16.9592C25.8546 16.927 25.7977 16.8968 25.7339 16.8685C25.6702 16.8403 25.6044 16.8104 25.5368 16.7789C25.4691 16.7473 25.4034 16.7115 25.3397 16.6715C25.2759 16.6314 25.219 16.5834 25.1689 16.5276C25.1188 16.4718 25.0781 16.4058 25.0469 16.3296C25.0157 16.2534 25.0001 16.1621 25.0001 16.0557C25.0001 15.9335 25.0225 15.8261 25.0674 15.7335C25.1123 15.6409 25.1728 15.564 25.2489 15.503C25.325 15.4419 25.4148 15.3962 25.5182 15.366C25.6217 15.3358 25.7313 15.3207 25.8471 15.3207ZM22.442 15.179L22.4699 15.1788C22.5181 15.1788 22.5577 15.1808 22.589 15.1847C22.6202 15.1887 22.6449 15.1942 22.6631 15.2015C22.6813 15.2087 22.6944 15.2176 22.7022 15.2281C22.71 15.2386 22.7139 15.2504 22.7139 15.2635V17.8488C22.7139 17.8633 22.7106 17.8754 22.7041 17.8853C22.6976 17.8951 22.6865 17.9034 22.6709 17.9099C22.6553 17.9165 22.6342 17.9211 22.6075 17.9237C22.5808 17.9263 22.548 17.9277 22.5089 17.9277C22.4673 17.9277 22.4335 17.9263 22.4075 17.9237C22.3814 17.9211 22.3603 17.9165 22.344 17.9099C22.3278 17.9034 22.316 17.8951 22.3089 17.8853C22.3017 17.8754 22.2982 17.8633 22.2982 17.8488V17.6538C22.2084 17.751 22.1144 17.8265 22.0161 17.8804C21.9179 17.9342 21.8089 17.9612 21.6892 17.9612C21.5565 17.9612 21.4443 17.9352 21.3526 17.8833C21.2608 17.8314 21.186 17.7615 21.1281 17.6735C21.0702 17.5855 21.0283 17.4827 21.0022 17.3651C20.9762 17.2475 20.9632 17.1237 20.9632 16.9936C20.9632 16.8373 20.9798 16.6968 21.013 16.572C21.0461 16.4472 21.0946 16.3407 21.1584 16.2527C21.2221 16.1647 21.3015 16.0971 21.3965 16.0498C21.4915 16.0025 21.6008 15.9788 21.7244 15.9788C21.8219 15.9788 21.9104 15.9989 21.9898 16.0389C22.0692 16.079 22.1479 16.1378 22.2259 16.2153V15.2635C22.2259 15.2504 22.2295 15.2386 22.2367 15.2281C22.2438 15.2176 22.2568 15.2087 22.2757 15.2015C22.2946 15.1942 22.3196 15.1887 22.3509 15.1847C22.3758 15.1816 22.4062 15.1797 22.442 15.179ZM17.0901 15.9788C17.1448 15.9788 17.1978 15.9828 17.2492 15.9907C17.3006 15.9985 17.3471 16.0084 17.3888 16.0202C17.4304 16.032 17.4655 16.0448 17.4941 16.0586L17.5246 16.0742C17.5379 16.0816 17.5482 16.0882 17.5556 16.0941C17.568 16.104 17.5768 16.1138 17.582 16.1237C17.5872 16.1335 17.5911 16.1453 17.5937 16.1591C17.5963 16.1729 17.5986 16.19 17.6005 16.2104C17.602 16.2256 17.6029 16.2437 17.6033 16.2645L17.6034 16.2862C17.6034 16.3217 17.6025 16.3506 17.6005 16.3729C17.5986 16.3953 17.5953 16.413 17.5908 16.4261C17.5862 16.4393 17.58 16.4481 17.5722 16.4527C17.5644 16.4573 17.5553 16.4596 17.5449 16.4596C17.5355 16.4596 17.522 16.4552 17.5043 16.4464L17.4902 16.4389C17.4655 16.4251 17.4346 16.4104 17.3975 16.3946C17.3605 16.3788 17.3175 16.3641 17.2687 16.3503C17.2199 16.3365 17.1643 16.3296 17.1019 16.3296C17.0576 16.3296 17.0192 16.3342 16.9867 16.3434C16.9542 16.3526 16.9275 16.3657 16.9067 16.3828C16.8859 16.3999 16.8703 16.4199 16.8598 16.4429C16.8494 16.4659 16.8442 16.4905 16.8442 16.5168C16.8442 16.5575 16.8566 16.5917 16.8813 16.6192C16.906 16.6468 16.9386 16.6711 16.9789 16.6922C17.0092 16.7079 17.0425 16.7229 17.079 16.7372L17.1165 16.7513C17.1679 16.7697 17.2199 16.7897 17.2726 16.8114C17.3253 16.833 17.3774 16.8583 17.4288 16.8872C17.4802 16.9161 17.526 16.9516 17.5664 16.9936C17.6067 17.0357 17.6392 17.0859 17.6639 17.1444C17.6887 17.2028 17.701 17.2721 17.701 17.3523C17.701 17.4521 17.6825 17.5401 17.6454 17.6163C17.6083 17.6925 17.556 17.7562 17.4883 17.8075C17.4206 17.8587 17.3406 17.8971 17.2482 17.9227C17.1559 17.9484 17.0557 17.9612 16.9477 17.9612C16.8826 17.9612 16.8205 17.9562 16.7613 17.9464C16.7021 17.9365 16.6491 17.924 16.6022 17.9089C16.5554 17.8938 16.5163 17.8784 16.4851 17.8626C16.4539 17.8469 16.4311 17.8321 16.4168 17.8183C16.4025 17.8045 16.3914 17.7828 16.3836 17.7533C16.3758 17.7237 16.3719 17.68 16.3719 17.6222C16.3719 17.5841 16.3732 17.5536 16.3758 17.5306C16.3784 17.5076 16.3823 17.4892 16.3875 17.4754C16.3927 17.4616 16.3992 17.4524 16.4071 17.4478C16.4149 17.4432 16.4246 17.4409 16.4363 17.4409C16.4478 17.4409 16.4636 17.4462 16.4838 17.4567L16.4998 17.4656C16.5277 17.482 16.5625 17.5001 16.6042 17.5198C16.6458 17.5395 16.6943 17.5579 16.7496 17.5749C16.8049 17.592 16.8677 17.6006 16.9379 17.6006C16.9822 17.6006 17.0215 17.596 17.056 17.5868C17.0905 17.5776 17.1204 17.5644 17.1458 17.5474C17.1711 17.5303 17.1903 17.5086 17.2033 17.4823C17.2164 17.4561 17.2229 17.4258 17.2229 17.3917C17.2229 17.3523 17.2108 17.3184 17.1868 17.2902C17.1627 17.262 17.1308 17.2373 17.0911 17.2163C17.0614 17.2005 17.0287 17.1855 16.993 17.1712L16.9565 17.1572C16.9064 17.1388 16.855 17.1184 16.8023 17.0961C16.7496 17.0738 16.6982 17.0482 16.6481 17.0193C16.598 16.9904 16.5531 16.9549 16.5134 16.9129C16.4737 16.8708 16.4419 16.8202 16.4178 16.7611C16.3937 16.702 16.3817 16.6311 16.3817 16.5483C16.3817 16.4642 16.3979 16.3871 16.4305 16.3168C16.463 16.2465 16.5098 16.1864 16.571 16.1365C16.6321 16.0866 16.7066 16.0478 16.7945 16.0202C16.8823 15.9926 16.9809 15.9788 17.0901 15.9788ZM28.6432 15.9788C28.6978 15.9788 28.7508 15.9828 28.8022 15.9907C28.8536 15.9985 28.9002 16.0084 28.9418 16.0202C28.9834 16.032 29.0186 16.0448 29.0472 16.0586C29.0758 16.0724 29.0963 16.0843 29.1087 16.0941C29.121 16.104 29.1298 16.1138 29.135 16.1237C29.1402 16.1335 29.1441 16.1453 29.1467 16.1591C29.1493 16.1729 29.1516 16.19 29.1535 16.2104C29.155 16.2256 29.1559 16.2437 29.1563 16.2645L29.1565 16.2862C29.1565 16.3217 29.1555 16.3506 29.1535 16.3729C29.1516 16.3953 29.1483 16.413 29.1438 16.4261C29.1392 16.4393 29.1331 16.4481 29.1252 16.4527C29.1174 16.4573 29.1083 16.4596 29.0979 16.4596C29.0886 16.4596 29.075 16.4552 29.0573 16.4464L29.0433 16.4389C29.0186 16.4251 28.9877 16.4104 28.9506 16.3946C28.9135 16.3788 28.8706 16.3641 28.8218 16.3503C28.773 16.3365 28.7173 16.3296 28.6549 16.3296C28.6106 16.3296 28.5723 16.3342 28.5397 16.3434C28.5072 16.3526 28.4805 16.3657 28.4597 16.3828C28.4389 16.3999 28.4233 16.4199 28.4129 16.4429C28.4025 16.4659 28.3973 16.4905 28.3973 16.5168C28.3973 16.5575 28.4096 16.5917 28.4343 16.6192C28.4591 16.6468 28.4916 16.6711 28.5319 16.6922C28.5723 16.7132 28.6181 16.7329 28.6695 16.7513C28.7209 16.7697 28.773 16.7897 28.8257 16.8114C28.8784 16.833 28.9304 16.8583 28.9818 16.8872C29.0332 16.9161 29.0791 16.9516 29.1194 16.9936C29.1597 17.0357 29.1923 17.0859 29.217 17.1444C29.2417 17.2028 29.2541 17.2721 29.2541 17.3523C29.2541 17.4521 29.2355 17.5401 29.1984 17.6163C29.1614 17.6925 29.109 17.7562 29.0413 17.8075C28.9737 17.8587 28.8936 17.8971 28.8013 17.9227C28.7089 17.9484 28.6087 17.9612 28.5007 17.9612C28.4356 17.9612 28.3735 17.9562 28.3143 17.9464C28.2551 17.9365 28.2021 17.924 28.1553 17.9089C28.1084 17.8938 28.0694 17.8784 28.0382 17.8626C28.0069 17.8469 27.9842 17.8321 27.9698 17.8183C27.9555 17.8045 27.9445 17.7828 27.9367 17.7533C27.9289 17.7237 27.925 17.68 27.925 17.6222C27.925 17.5841 27.9263 17.5536 27.9289 17.5306C27.9315 17.5076 27.9354 17.4892 27.9406 17.4754C27.9458 17.4616 27.9523 17.4524 27.9601 17.4478C27.9679 17.4432 27.9777 17.4409 27.9894 17.4409C28.0008 17.4409 28.0166 17.4462 28.0368 17.4567L28.0528 17.4656C28.0808 17.482 28.1156 17.5001 28.1572 17.5198C28.1988 17.5395 28.2473 17.5579 28.3026 17.5749C28.3579 17.592 28.4207 17.6006 28.4909 17.6006C28.5352 17.6006 28.5745 17.596 28.609 17.5868C28.6435 17.5776 28.6734 17.5644 28.6988 17.5474C28.7242 17.5303 28.7434 17.5086 28.7564 17.4823C28.7694 17.4561 28.7759 17.4258 28.7759 17.3917C28.7759 17.3523 28.7639 17.3184 28.7398 17.2902C28.7157 17.262 28.6838 17.2373 28.6442 17.2163C28.6144 17.2005 28.5817 17.1855 28.5461 17.1712L28.5095 17.1572C28.4594 17.1388 28.408 17.1184 28.3553 17.0961C28.3026 17.0738 28.2512 17.0482 28.2011 17.0193C28.151 16.9904 28.1061 16.9549 28.0665 16.9129C28.0268 16.8708 27.9949 16.8202 27.9708 16.7611C27.9468 16.702 27.9347 16.6311 27.9347 16.5483C27.9347 16.4642 27.951 16.3871 27.9835 16.3168C28.016 16.2465 28.0629 16.1864 28.124 16.1365C28.1852 16.0866 28.2597 16.0478 28.3475 16.0202C28.4353 15.9926 28.5339 15.9788 28.6432 15.9788ZM37.6479 15.179L37.6758 15.1788C37.7239 15.1788 37.7636 15.1808 37.7949 15.1847C37.8261 15.1887 37.8508 15.1942 37.869 15.2015C37.8872 15.2087 37.9003 15.2176 37.9081 15.2281C37.9159 15.2386 37.9198 15.2504 37.9198 15.2635V17.8488C37.9198 17.8633 37.9165 17.8754 37.91 17.8853C37.9035 17.8951 37.8924 17.9034 37.8768 17.9099C37.8612 17.9165 37.8401 17.9211 37.8134 17.9237C37.7867 17.9263 37.7539 17.9277 37.7148 17.9277C37.6732 17.9277 37.6394 17.9263 37.6134 17.9237C37.5873 17.9211 37.5662 17.9165 37.5499 17.9099C37.5337 17.9034 37.5219 17.8951 37.5148 17.8853C37.5076 17.8754 37.5041 17.8633 37.5041 17.8488V17.6538C37.4143 17.751 37.3203 17.8265 37.222 17.8804C37.1238 17.9342 37.0148 17.9612 36.8951 17.9612C36.7624 17.9612 36.6502 17.9352 36.5585 17.8833C36.4667 17.8314 36.3919 17.7615 36.334 17.6735C36.2761 17.5855 36.2342 17.4827 36.2081 17.3651C36.1821 17.2475 36.1691 17.1237 36.1691 16.9936C36.1691 16.8373 36.1857 16.6968 36.2189 16.572C36.252 16.4472 36.3005 16.3407 36.3643 16.2527C36.428 16.1647 36.5074 16.0971 36.6024 16.0498C36.6974 16.0025 36.8067 15.9788 36.9303 15.9788C37.0278 15.9788 37.1163 15.9989 37.1957 16.0389C37.2751 16.079 37.3538 16.1378 37.4318 16.2153V15.2635C37.4318 15.2504 37.4354 15.2386 37.4426 15.2281C37.4497 15.2176 37.4627 15.2087 37.4816 15.2015C37.5005 15.1942 37.5255 15.1887 37.5568 15.1847C37.5817 15.1816 37.6121 15.1797 37.6479 15.179ZM2.53103 15.3207C2.59088 15.3207 2.65073 15.3253 2.71058 15.3345C2.77043 15.3437 2.82638 15.3562 2.87843 15.3719C2.93047 15.3877 2.97666 15.4054 3.017 15.4251C3.05733 15.4448 3.08401 15.4612 3.09702 15.4744C3.11003 15.4875 3.11881 15.4987 3.12336 15.5079C3.12792 15.5171 3.13182 15.5292 3.13507 15.5443C3.13833 15.5594 3.1406 15.5785 3.14191 15.6015L3.14337 15.6402L3.14386 15.6872C3.14386 15.7253 3.14288 15.7575 3.14093 15.7838C3.13898 15.81 3.13573 15.8317 3.13117 15.8488C3.12662 15.8659 3.12011 15.8783 3.11165 15.8862C3.1032 15.8941 3.09181 15.898 3.0775 15.898C3.06557 15.898 3.04777 15.8917 3.0241 15.8789L3.00919 15.8705C2.97796 15.8521 2.93958 15.832 2.89404 15.8104C2.8485 15.7887 2.79581 15.769 2.73595 15.7512C2.6761 15.7335 2.61039 15.7246 2.53883 15.7246C2.48288 15.7246 2.43409 15.7315 2.39246 15.7453C2.35082 15.7591 2.31601 15.7782 2.28804 15.8025C2.26007 15.8268 2.23925 15.856 2.22559 15.8902C2.21192 15.9243 2.20509 15.9604 2.20509 15.9985C2.20509 16.055 2.22038 16.104 2.25096 16.1453C2.28153 16.1867 2.32252 16.2235 2.37391 16.2557C2.42531 16.2879 2.48353 16.3181 2.54859 16.3463C2.61365 16.3746 2.68 16.4045 2.74766 16.436C2.81532 16.4675 2.88168 16.5033 2.94674 16.5434C3.01179 16.5834 3.06969 16.6314 3.12044 16.6872C3.17118 16.7431 3.21217 16.8087 3.24339 16.8843C3.27462 16.9598 3.29023 17.0488 3.29023 17.1513C3.29023 17.2853 3.26551 17.4029 3.21607 17.504C3.16663 17.6052 3.09962 17.6896 3.01505 17.7572C2.93047 17.8249 2.83159 17.8758 2.71839 17.9099C2.60519 17.9441 2.48419 17.9612 2.35537 17.9612C2.2682 17.9612 2.1872 17.9539 2.11239 17.9395C2.03757 17.925 1.97154 17.9076 1.91429 17.8873C1.85704 17.8669 1.80922 17.8456 1.77084 17.8232C1.73246 17.8009 1.70481 17.7812 1.68789 17.7641C1.67098 17.747 1.65894 17.7224 1.65179 17.6902C1.64463 17.658 1.64105 17.6117 1.64105 17.5513C1.64105 17.5106 1.64235 17.4764 1.64496 17.4488C1.64756 17.4212 1.65179 17.3989 1.65764 17.3818C1.6635 17.3648 1.6713 17.3526 1.68106 17.3454C1.69082 17.3382 1.70221 17.3345 1.71522 17.3345C1.7304 17.3345 1.75077 17.3421 1.77634 17.3571L1.79231 17.3671C1.82549 17.3887 1.8681 17.4127 1.92015 17.439C1.97219 17.4653 2.03432 17.4892 2.10653 17.5109C2.17875 17.5326 2.26234 17.5434 2.35732 17.5434C2.41978 17.5434 2.47573 17.5359 2.52517 17.5208C2.57461 17.5056 2.61657 17.4843 2.65105 17.4567C2.68553 17.4291 2.71188 17.395 2.7301 17.3542C2.74831 17.3135 2.75742 17.2682 2.75742 17.2183C2.75742 17.1605 2.74181 17.1109 2.71058 17.0695C2.67935 17.0281 2.63869 16.9913 2.5886 16.9592C2.53851 16.927 2.48158 16.8968 2.41783 16.8685C2.35407 16.8403 2.28837 16.8104 2.22071 16.7789C2.15305 16.7473 2.08734 16.7115 2.02359 16.6715C1.95983 16.6314 1.90291 16.5834 1.85281 16.5276C1.80272 16.4718 1.76206 16.4058 1.73083 16.3296C1.6996 16.2534 1.68399 16.1621 1.68399 16.0557C1.68399 15.9335 1.70643 15.8261 1.75132 15.7335C1.79621 15.6409 1.85671 15.564 1.93283 15.503C2.00895 15.4419 2.09872 15.3962 2.20217 15.366C2.30561 15.3358 2.41522 15.3207 2.53103 15.3207ZM18.8229 15.9788C18.9595 15.9788 19.0763 15.9923 19.1732 16.0192C19.2702 16.0462 19.3499 16.0875 19.4123 16.1434C19.4748 16.1992 19.5203 16.2711 19.5489 16.3591C19.5776 16.4472 19.5919 16.5516 19.5919 16.6725V17.8548C19.5919 17.8731 19.5854 17.8876 19.5723 17.8981C19.5593 17.9086 19.5388 17.9162 19.5109 17.9208C19.4876 17.9246 19.455 17.9268 19.4131 17.9275L19.3869 17.9277C19.3284 17.9277 19.2858 17.9254 19.2591 17.9208C19.2324 17.9162 19.2136 17.9086 19.2025 17.8981C19.1914 17.8876 19.1859 17.8731 19.1859 17.8548V17.7148C19.1143 17.7924 19.0327 17.8528 18.941 17.8961C18.8492 17.9395 18.7474 17.9612 18.6355 17.9612C18.5432 17.9612 18.4583 17.949 18.3808 17.9247C18.3034 17.9004 18.2364 17.8643 18.1798 17.8163C18.1232 17.7684 18.0793 17.7089 18.0481 17.638C18.0168 17.5671 18.0012 17.4843 18.0012 17.3897C18.0012 17.2872 18.0211 17.1982 18.0608 17.1227C18.1004 17.0472 18.1596 16.9848 18.2384 16.9355C18.3171 16.8862 18.415 16.8498 18.5321 16.8262C18.6492 16.8025 18.7852 16.7907 18.94 16.7907H19.1098V16.6843C19.1098 16.6291 19.1043 16.5808 19.0932 16.5394C19.0821 16.4981 19.0639 16.4636 19.0386 16.436C19.0132 16.4084 18.9794 16.388 18.9371 16.3749C18.8948 16.3618 18.8424 16.3552 18.78 16.3552C18.698 16.3552 18.6248 16.3644 18.5604 16.3828C18.496 16.4012 18.4391 16.4215 18.3896 16.4439C18.3402 16.4662 18.2989 16.4866 18.2657 16.505C18.2325 16.5233 18.2055 16.5325 18.1847 16.5325C18.1704 16.5325 18.1577 16.5279 18.1466 16.5187C18.1356 16.5096 18.1265 16.4964 18.1193 16.4793C18.1122 16.4623 18.1066 16.4412 18.1027 16.4163C18.0988 16.3913 18.0969 16.3637 18.0969 16.3335C18.0969 16.2928 18.1001 16.2606 18.1066 16.237C18.1131 16.2133 18.1255 16.192 18.1437 16.1729C18.1619 16.1539 18.1938 16.1329 18.2393 16.1099C18.2849 16.0869 18.3382 16.0655 18.3994 16.0458C18.4605 16.0261 18.5272 16.01 18.5994 15.9976C18.6716 15.9851 18.7461 15.9788 18.8229 15.9788ZM8.64072 15.9788C8.77734 15.9788 8.89412 15.9923 8.99105 16.0192C9.08799 16.0462 9.16768 16.0875 9.23013 16.1434C9.29259 16.1992 9.33813 16.2711 9.36675 16.3591C9.39538 16.4472 9.40969 16.5516 9.40969 16.6725V17.8548C9.40969 17.8731 9.40318 17.8876 9.39017 17.8981C9.37716 17.9086 9.35667 17.9162 9.32869 17.9208C9.30538 17.9246 9.27281 17.9268 9.23097 17.9275L9.20476 17.9277C9.14621 17.9277 9.1036 17.9254 9.07692 17.9208C9.05025 17.9162 9.03139 17.9086 9.02033 17.8981C9.00927 17.8876 9.00374 17.8731 9.00374 17.8548V17.7148C8.93217 17.7924 8.85053 17.8528 8.7588 17.8961C8.66707 17.9395 8.56526 17.9612 8.45336 17.9612C8.36098 17.9612 8.27608 17.949 8.19866 17.9247C8.12124 17.9004 8.05424 17.8643 7.99764 17.8163C7.94104 17.7684 7.89713 17.7089 7.8659 17.638C7.83467 17.5671 7.81906 17.4843 7.81906 17.3897C7.81906 17.2872 7.8389 17.1982 7.87859 17.1227C7.91827 17.0472 7.97747 16.9848 8.05619 16.9355C8.13491 16.8862 8.23282 16.8498 8.34992 16.8262C8.46702 16.8025 8.60299 16.7907 8.75782 16.7907H8.92762V16.6843C8.92762 16.6291 8.92209 16.5808 8.91103 16.5394C8.89997 16.4981 8.88175 16.4636 8.85638 16.436C8.83101 16.4084 8.79718 16.388 8.7549 16.3749C8.71261 16.3618 8.66024 16.3552 8.59778 16.3552C8.51581 16.3552 8.44263 16.3644 8.37822 16.3828C8.31381 16.4012 8.25689 16.4215 8.20745 16.4439C8.158 16.4662 8.11669 16.4866 8.08351 16.505C8.05033 16.5233 8.02334 16.5325 8.00252 16.5325C7.9882 16.5325 7.97552 16.5279 7.96446 16.5187C7.9534 16.5096 7.94429 16.4964 7.93714 16.4793C7.92998 16.4623 7.92445 16.4412 7.92055 16.4163C7.91664 16.3913 7.91469 16.3637 7.91469 16.3335C7.91469 16.2928 7.91794 16.2606 7.92445 16.237C7.93096 16.2133 7.94332 16.192 7.96153 16.1729C7.97975 16.1539 8.01163 16.1329 8.05717 16.1099C8.10271 16.0869 8.15605 16.0655 8.2172 16.0458C8.27836 16.0261 8.34504 16.01 8.41725 15.9976C8.48947 15.9851 8.56395 15.9788 8.64072 15.9788ZM39.1665 15.9788C39.3032 15.9788 39.4199 15.9923 39.5169 16.0192C39.6138 16.0462 39.6935 16.0875 39.756 16.1434C39.8184 16.1992 39.864 16.2711 39.8926 16.3591C39.9212 16.4472 39.9355 16.5516 39.9355 16.6725V17.8548C39.9355 17.8731 39.929 17.8876 39.916 17.8981C39.903 17.9086 39.8825 17.9162 39.8545 17.9208C39.8312 17.9246 39.7986 17.9268 39.7568 17.9275L39.7306 17.9277C39.672 17.9277 39.6294 17.9254 39.6028 17.9208C39.5761 17.9162 39.5572 17.9086 39.5462 17.8981C39.5351 17.8876 39.5296 17.8731 39.5296 17.8548V17.7148C39.458 17.7924 39.3764 17.8528 39.2846 17.8961C39.1929 17.9395 39.0911 17.9612 38.9792 17.9612C38.8868 17.9612 38.8019 17.949 38.7245 17.9247C38.6471 17.9004 38.5801 17.8643 38.5235 17.8163C38.4669 17.7684 38.423 17.7089 38.3917 17.638C38.3605 17.5671 38.3449 17.4843 38.3449 17.3897C38.3449 17.2872 38.3647 17.1982 38.4044 17.1227C38.4441 17.0472 38.5033 16.9848 38.582 16.9355C38.6607 16.8862 38.7586 16.8498 38.8757 16.8262C38.9928 16.8025 39.1288 16.7907 39.2836 16.7907H39.4534V16.6843C39.4534 16.6291 39.4479 16.5808 39.4369 16.5394C39.4258 16.4981 39.4076 16.4636 39.3822 16.436C39.3568 16.4084 39.323 16.388 39.2807 16.3749C39.2384 16.3618 39.1861 16.3552 39.1236 16.3552C39.0416 16.3552 38.9685 16.3644 38.904 16.3828C38.8396 16.4012 38.7827 16.4215 38.7333 16.4439C38.6838 16.4662 38.6425 16.4866 38.6093 16.505C38.5762 16.5233 38.5492 16.5325 38.5283 16.5325C38.514 16.5325 38.5013 16.5279 38.4903 16.5187C38.4792 16.5096 38.4701 16.4964 38.463 16.4793C38.4558 16.4623 38.4503 16.4412 38.4464 16.4163C38.4425 16.3913 38.4405 16.3637 38.4405 16.3335C38.4405 16.2928 38.4438 16.2606 38.4503 16.237C38.4568 16.2133 38.4691 16.192 38.4874 16.1729C38.5056 16.1539 38.5374 16.1329 38.583 16.1099C38.6285 16.0869 38.6819 16.0655 38.743 16.0458C38.8042 16.0261 38.8709 16.01 38.9431 15.9976C39.0153 15.9851 39.0898 15.9788 39.1665 15.9788ZM15.1778 15.9788C15.3145 15.9788 15.4312 15.9923 15.5282 16.0192C15.6251 16.0462 15.7048 16.0875 15.7673 16.1434C15.8297 16.1992 15.8752 16.2711 15.9039 16.3591C15.9325 16.4472 15.9468 16.5516 15.9468 16.6725V17.8548C15.9468 17.8731 15.9403 17.8876 15.9273 17.8981C15.9143 17.9086 15.8938 17.9162 15.8658 17.9208C15.8425 17.9246 15.8099 17.9268 15.7681 17.9275L15.7419 17.9277C15.6833 17.9277 15.6407 17.9254 15.614 17.9208C15.5874 17.9162 15.5685 17.9086 15.5574 17.8981C15.5464 17.8876 15.5409 17.8731 15.5409 17.8548V17.7148C15.4693 17.7924 15.3876 17.8528 15.2959 17.8961C15.2042 17.9395 15.1024 17.9612 14.9905 17.9612C14.8981 17.9612 14.8132 17.949 14.7358 17.9247C14.6584 17.9004 14.5914 17.8643 14.5348 17.8163C14.4782 17.7684 14.4342 17.7089 14.403 17.638C14.3718 17.5671 14.3562 17.4843 14.3562 17.3897C14.3562 17.2872 14.376 17.1982 14.4157 17.1227C14.4554 17.0472 14.5146 16.9848 14.5933 16.9355C14.672 16.8862 14.7699 16.8498 14.887 16.8262C15.0041 16.8025 15.1401 16.7907 15.2949 16.7907H15.4647V16.6843C15.4647 16.6291 15.4592 16.5808 15.4481 16.5394C15.4371 16.4981 15.4189 16.4636 15.3935 16.436C15.3681 16.4084 15.3343 16.388 15.292 16.3749C15.2497 16.3618 15.1974 16.3552 15.1349 16.3552C15.0529 16.3552 14.9797 16.3644 14.9153 16.3828C14.8509 16.4012 14.794 16.4215 14.7446 16.4439C14.6951 16.4662 14.6538 16.4866 14.6206 16.505C14.5875 16.5233 14.5605 16.5325 14.5396 16.5325C14.5253 16.5325 14.5126 16.5279 14.5016 16.5187C14.4905 16.5096 14.4814 16.4964 14.4743 16.4793C14.4671 16.4623 14.4616 16.4412 14.4577 16.4163C14.4538 16.3913 14.4518 16.3637 14.4518 16.3335C14.4518 16.2928 14.4551 16.2606 14.4616 16.237C14.4681 16.2133 14.4804 16.192 14.4986 16.1729C14.5169 16.1539 14.5487 16.1329 14.5943 16.1099C14.6398 16.0869 14.6932 16.0655 14.7543 16.0458C14.8155 16.0261 14.8822 16.01 14.9544 15.9976C15.0266 15.9851 15.1011 15.9788 15.1778 15.9788ZM4.47846 15.9788C4.62419 15.9788 4.74877 16.0005 4.85221 16.0439C4.95565 16.0872 5.04055 16.1473 5.10691 16.2242C5.17327 16.301 5.22206 16.392 5.25329 16.4971C5.28451 16.6022 5.30013 16.7165 5.30013 16.8399V16.9188C5.30013 16.9792 5.28679 17.0239 5.26012 17.0528C5.23344 17.0817 5.19669 17.0961 5.14985 17.0961H4.09008C4.09008 17.171 4.09886 17.239 4.11642 17.3001C4.13399 17.3611 4.16196 17.413 4.20035 17.4557C4.23873 17.4984 4.28817 17.5309 4.34868 17.5533C4.40918 17.5756 4.48172 17.5868 4.56629 17.5868C4.65216 17.5868 4.72763 17.5805 4.79269 17.568C4.85774 17.5556 4.91402 17.5418 4.96151 17.5267L5.01459 17.5092L5.05987 17.4929L5.07959 17.4853C5.11081 17.4728 5.13618 17.4666 5.1557 17.4666C5.16741 17.4666 5.17717 17.4689 5.18498 17.4735C5.19278 17.4781 5.19929 17.4863 5.20449 17.4981C5.2097 17.5099 5.21328 17.5267 5.21523 17.5483C5.21669 17.5646 5.21761 17.584 5.21797 17.6065L5.21816 17.6301C5.21816 17.659 5.2175 17.6836 5.2162 17.704C5.2149 17.7244 5.21295 17.7418 5.21035 17.7562C5.20775 17.7707 5.20384 17.7828 5.19864 17.7927C5.19343 17.8025 5.1866 17.8121 5.17815 17.8213C5.16969 17.8305 5.14659 17.8429 5.10886 17.8587C5.07113 17.8745 5.02299 17.8899 4.96444 17.905C4.90588 17.9201 4.83888 17.9332 4.76341 17.9444C4.68794 17.9556 4.60728 17.9612 4.5214 17.9612C4.36657 17.9612 4.23092 17.9415 4.11447 17.902C3.99802 17.8626 3.90076 17.8029 3.82269 17.7227C3.74463 17.6426 3.6864 17.5414 3.64802 17.4193C3.60963 17.2971 3.59044 17.1539 3.59044 16.9897C3.59044 16.8334 3.61061 16.6925 3.65095 16.567C3.69128 16.4416 3.74983 16.3352 3.8266 16.2478C3.90336 16.1604 3.99672 16.0938 4.10667 16.0478C4.21661 16.0018 4.34054 15.9788 4.47846 15.9788ZM35.1097 15.9788C35.2281 15.9788 35.3279 15.9985 35.4093 16.0379C35.4906 16.0774 35.5563 16.1309 35.6064 16.1985C35.6565 16.2662 35.6926 16.3453 35.7147 16.436C35.7368 16.5266 35.7479 16.6357 35.7479 16.7631V17.8488C35.7479 17.862 35.744 17.8735 35.7362 17.8833C35.7284 17.8932 35.7154 17.9014 35.6971 17.908C35.6789 17.9145 35.6539 17.9195 35.622 17.9227C35.5965 17.9254 35.5662 17.9269 35.5311 17.9275L35.5039 17.9277C35.4558 17.9277 35.4158 17.926 35.3839 17.9227C35.352 17.9195 35.327 17.9145 35.3088 17.908C35.2905 17.9014 35.2775 17.8932 35.2697 17.8833C35.2619 17.8735 35.258 17.862 35.258 17.8488V16.8459C35.258 16.7605 35.2518 16.6935 35.2395 16.6449C35.2271 16.5963 35.2092 16.5545 35.1858 16.5197C35.1624 16.4849 35.1321 16.458 35.095 16.4389C35.058 16.4199 35.0147 16.4104 34.9653 16.4104C34.9028 16.4104 34.8397 16.4334 34.7759 16.4793C34.7122 16.5253 34.6458 16.5923 34.5769 16.6803V17.8488C34.5769 17.862 34.573 17.8735 34.5652 17.8833C34.5574 17.8932 34.544 17.9014 34.5252 17.908C34.5063 17.9145 34.4812 17.9195 34.45 17.9227C34.425 17.9254 34.3946 17.9269 34.3588 17.9275L34.331 17.9277C34.2828 17.9277 34.2431 17.926 34.2119 17.9227C34.1807 17.9195 34.1556 17.9145 34.1368 17.908C34.1179 17.9014 34.1046 17.8932 34.0968 17.8833C34.0889 17.8735 34.085 17.862 34.085 17.8488V16.0912C34.085 16.078 34.0883 16.0665 34.0948 16.0567C34.1013 16.0468 34.113 16.0386 34.1299 16.032C34.1468 16.0255 34.1686 16.0205 34.1953 16.0173C34.222 16.014 34.2555 16.0123 34.2958 16.0123L34.3424 16.0131C34.3639 16.0139 34.3829 16.0153 34.3993 16.0173C34.4266 16.0205 34.4477 16.0255 34.4627 16.032C34.4777 16.0386 34.4884 16.0468 34.4949 16.0567C34.5014 16.0665 34.5047 16.078 34.5047 16.0912V16.2941C34.6009 16.189 34.6988 16.1102 34.7984 16.0577C34.8979 16.0051 35.0017 15.9788 35.1097 15.9788ZM32.5368 15.3543L32.659 15.3547L32.7524 15.3571C32.7979 15.3591 32.8334 15.3637 32.8588 15.3709C32.8841 15.3782 32.9023 15.389 32.9134 15.4034C32.9217 15.4143 32.9291 15.4281 32.9355 15.4448L33.7224 17.7227C33.738 17.77 33.7478 17.8075 33.7517 17.835C33.7556 17.8626 33.7504 17.8833 33.736 17.8971C33.7217 17.9109 33.6964 17.9195 33.6599 17.9227C33.6356 17.9249 33.6053 17.9264 33.5688 17.9271L33.5096 17.9277C33.4433 17.9277 33.3916 17.9267 33.3545 17.9247C33.3174 17.9227 33.2891 17.9188 33.2696 17.9129C33.2501 17.907 33.2364 17.8988 33.2286 17.8883C33.2208 17.8777 33.2143 17.864 33.2091 17.8469L33.0393 17.3345H32.0908L31.9307 17.8331C31.9255 17.8515 31.9187 17.8669 31.9102 17.8794C31.9018 17.8919 31.8881 17.9017 31.8692 17.9089C31.8504 17.9162 31.8237 17.9211 31.7892 17.9237L31.7528 17.9258L31.7098 17.9272L31.6536 17.9277C31.5937 17.9277 31.5469 17.9257 31.5131 17.9218C31.4792 17.9178 31.4558 17.9083 31.4428 17.8932C31.4298 17.8781 31.4252 17.8567 31.4291 17.8291C31.433 17.8015 31.4428 17.7648 31.4584 17.7188L32.2371 15.4566C32.2449 15.4343 32.2541 15.4163 32.2645 15.4025C32.2749 15.3887 32.2915 15.3782 32.3142 15.3709C32.337 15.3637 32.3686 15.3591 32.4089 15.3571L32.4791 15.3549L32.5368 15.3543ZM29.9075 16.0123C29.9557 16.0123 29.9953 16.0143 30.0266 16.0182C30.0578 16.0222 30.0828 16.0278 30.1017 16.035C30.1206 16.0422 30.1339 16.0508 30.1417 16.0606C30.1495 16.0705 30.1534 16.082 30.1534 16.0951V17.8488C30.1534 17.862 30.1495 17.8735 30.1417 17.8833C30.1339 17.8932 30.1206 17.9014 30.1017 17.908C30.0828 17.9145 30.0578 17.9195 30.0266 17.9227C30.0016 17.9254 29.9712 17.9269 29.9354 17.9275L29.9075 17.9277C29.8594 17.9277 29.8197 17.926 29.7885 17.9227C29.7572 17.9195 29.7322 17.9145 29.7133 17.908C29.6945 17.9014 29.6811 17.8932 29.6733 17.8833C29.6655 17.8735 29.6616 17.862 29.6616 17.8488V16.0951C29.6616 16.082 29.6655 16.0705 29.6733 16.0606C29.6811 16.0508 29.6945 16.0422 29.7133 16.035C29.7322 16.0278 29.7572 16.0222 29.7885 16.0182C29.8197 16.0143 29.8594 16.0123 29.9075 16.0123ZM27.2539 16.0123C27.3021 16.0123 27.3418 16.0143 27.373 16.0182C27.4042 16.0222 27.4293 16.0278 27.4481 16.035C27.467 16.0422 27.4803 16.0508 27.4881 16.0606C27.4959 16.0705 27.4998 16.082 27.4998 16.0951V17.8488C27.4998 17.862 27.4959 17.8735 27.4881 17.8833C27.4803 17.8932 27.467 17.9014 27.4481 17.908C27.4293 17.9145 27.4042 17.9195 27.373 17.9227C27.348 17.9254 27.3176 17.9269 27.2818 17.9275L27.2539 17.9277C27.2058 17.9277 27.1661 17.926 27.1349 17.9227C27.1036 17.9195 27.0786 17.9145 27.0597 17.908C27.0409 17.9014 27.0275 17.8932 27.0197 17.8833C27.0119 17.8735 27.008 17.862 27.008 17.8488V16.0951C27.008 16.082 27.0119 16.0705 27.0197 16.0606C27.0275 16.0508 27.0409 16.0422 27.0597 16.035C27.0786 16.0278 27.1036 16.0222 27.1349 16.0182C27.1661 16.0143 27.2058 16.0123 27.2539 16.0123ZM23.4922 16.0123C23.5404 16.0123 23.5801 16.0143 23.6113 16.0182C23.6425 16.0222 23.6676 16.0278 23.6864 16.035C23.7053 16.0422 23.7186 16.0508 23.7264 16.0606C23.7343 16.0705 23.7382 16.082 23.7382 16.0951V17.8488C23.7382 17.862 23.7343 17.8735 23.7264 17.8833C23.7186 17.8932 23.7053 17.9014 23.6864 17.908C23.6676 17.9145 23.6425 17.9195 23.6113 17.9227C23.5863 17.9254 23.5559 17.9269 23.5201 17.9275L23.4922 17.9277C23.4441 17.9277 23.4044 17.926 23.3732 17.9227C23.342 17.9195 23.3169 17.9145 23.298 17.908C23.2792 17.9014 23.2658 17.8932 23.258 17.8833C23.2502 17.8735 23.2463 17.862 23.2463 17.8488V16.0951C23.2463 16.082 23.2502 16.0705 23.258 16.0606C23.2658 16.0508 23.2792 16.0422 23.298 16.035C23.3169 16.0278 23.342 16.0222 23.3732 16.0182C23.4044 16.0143 23.4441 16.0123 23.4922 16.0123ZM6.76745 15.9788C6.88585 15.9788 6.98571 15.9985 7.06703 16.0379C7.14835 16.0774 7.21406 16.1309 7.26415 16.1985C7.31425 16.2662 7.35035 16.3453 7.37247 16.436C7.39459 16.5266 7.40565 16.6357 7.40565 16.7631V17.8488C7.40565 17.862 7.40175 17.8735 7.39394 17.8833C7.38613 17.8932 7.37312 17.9014 7.35491 17.908C7.33669 17.9145 7.31165 17.9195 7.27977 17.9227C7.25427 17.9254 7.22398 17.9269 7.1889 17.9275L7.16169 17.9277C7.11355 17.9277 7.07354 17.926 7.04166 17.9227C7.00978 17.9195 6.98474 17.9145 6.96652 17.908C6.94831 17.9014 6.93529 17.8932 6.92749 17.8833C6.91968 17.8735 6.91578 17.862 6.91578 17.8488V16.8459C6.91578 16.7605 6.9096 16.6935 6.89724 16.6449C6.88487 16.5963 6.86698 16.5545 6.84356 16.5197C6.82014 16.4849 6.78989 16.458 6.75281 16.4389C6.71573 16.4199 6.67247 16.4104 6.62302 16.4104C6.56057 16.4104 6.49746 16.4334 6.43371 16.4793C6.36995 16.5253 6.3036 16.5923 6.23464 16.6803V17.8488C6.23464 17.862 6.23073 17.8735 6.22293 17.8833C6.21512 17.8932 6.20178 17.9014 6.18292 17.908C6.16405 17.9145 6.139 17.9195 6.10778 17.9227C6.08279 17.9254 6.0524 17.9269 6.01659 17.9275L5.98872 17.9277C5.94058 17.9277 5.9009 17.926 5.86967 17.9227C5.83844 17.9195 5.8134 17.9145 5.79453 17.908C5.77566 17.9014 5.76233 17.8932 5.75452 17.8833C5.74671 17.8735 5.74281 17.862 5.74281 17.8488V16.0912C5.74281 16.078 5.74606 16.0665 5.75257 16.0567C5.75907 16.0468 5.77078 16.0386 5.7877 16.032C5.80461 16.0255 5.82641 16.0205 5.85308 16.0173C5.87975 16.014 5.91326 16.0123 5.95359 16.0123L6.00012 16.0131C6.02167 16.0139 6.04064 16.0153 6.05703 16.0173C6.08436 16.0205 6.1055 16.0255 6.12046 16.032C6.13542 16.0386 6.14616 16.0468 6.15266 16.0567C6.15917 16.0665 6.16242 16.078 6.16242 16.0912V16.2941C6.25871 16.189 6.35662 16.1102 6.45615 16.0577C6.55569 16.0051 6.65945 15.9788 6.76745 15.9788ZM10.9629 15.9788C11.0813 15.9788 11.1811 15.9985 11.2625 16.0379C11.3438 16.0774 11.4095 16.1309 11.4596 16.1985C11.5097 16.2662 11.5458 16.3453 11.5679 16.436C11.59 16.5266 11.6011 16.6357 11.6011 16.7631V17.8488C11.6011 17.862 11.5972 17.8735 11.5894 17.8833C11.5816 17.8932 11.5686 17.9014 11.5503 17.908C11.5321 17.9145 11.5071 17.9195 11.4752 17.9227C11.4497 17.9254 11.4194 17.9269 11.3843 17.9275L11.3571 17.9277C11.309 17.9277 11.269 17.926 11.2371 17.9227C11.2052 17.9195 11.1802 17.9145 11.162 17.908C11.1437 17.9014 11.1307 17.8932 11.1229 17.8833C11.1151 17.8735 11.1112 17.862 11.1112 17.8488V16.8459C11.1112 16.7605 11.105 16.6935 11.0927 16.6449C11.0803 16.5963 11.0624 16.5545 11.039 16.5197C11.0156 16.4849 10.9853 16.458 10.9482 16.4389C10.9112 16.4199 10.8679 16.4104 10.8185 16.4104C10.756 16.4104 10.6929 16.4334 10.6291 16.4793C10.5654 16.5253 10.499 16.5923 10.4301 16.6803V17.8488C10.4301 17.862 10.4262 17.8735 10.4184 17.8833C10.4106 17.8932 10.3972 17.9014 10.3784 17.908C10.3595 17.9145 10.3344 17.9195 10.3032 17.9227C10.2782 17.9254 10.2478 17.9269 10.212 17.9275L10.1842 17.9277C10.136 17.9277 10.0963 17.926 10.0651 17.9227C10.0339 17.9195 10.0088 17.9145 9.98996 17.908C9.9711 17.9014 9.95776 17.8932 9.94995 17.8833C9.94215 17.8735 9.93824 17.862 9.93824 17.8488V16.0912C9.93824 16.078 9.9415 16.0665 9.948 16.0567C9.95451 16.0468 9.96622 16.0386 9.98313 16.032C10 16.0255 10.0218 16.0205 10.0485 16.0173C10.0752 16.014 10.1087 16.0123 10.149 16.0123L10.1956 16.0131C10.2171 16.0139 10.2361 16.0153 10.2525 16.0173C10.2798 16.0205 10.3009 16.0255 10.3159 16.032C10.3309 16.0386 10.3416 16.0468 10.3481 16.0567C10.3546 16.0665 10.3579 16.078 10.3579 16.0912V16.2941C10.4541 16.189 10.5521 16.1102 10.6516 16.0577C10.7511 16.0051 10.8549 15.9788 10.9629 15.9788ZM19.1098 17.102H18.9224C18.8431 17.102 18.7754 17.1079 18.7195 17.1198C18.6635 17.1316 18.618 17.1493 18.5828 17.173C18.5477 17.1966 18.522 17.2252 18.5057 17.2587C18.4895 17.2922 18.4813 17.3306 18.4813 17.374C18.4813 17.4475 18.5044 17.5053 18.5506 17.5474C18.5968 17.5894 18.6609 17.6104 18.7429 17.6104C18.8118 17.6104 18.8753 17.5927 18.9332 17.5572C18.9911 17.5217 19.0499 17.4698 19.1098 17.4015V17.102ZM15.4647 17.102H15.2774C15.198 17.102 15.1303 17.1079 15.0744 17.1198C15.0184 17.1316 14.9729 17.1493 14.9378 17.173C14.9026 17.1966 14.877 17.2252 14.8607 17.2587C14.8444 17.2922 14.8363 17.3306 14.8363 17.374C14.8363 17.4475 14.8594 17.5053 14.9056 17.5474C14.9518 17.5894 15.0158 17.6104 15.0978 17.6104C15.1668 17.6104 15.2302 17.5927 15.2881 17.5572C15.346 17.5217 15.4049 17.4698 15.4647 17.4015V17.102ZM39.4534 17.102H39.2661C39.1867 17.102 39.1191 17.1079 39.0631 17.1198C39.0072 17.1316 38.9616 17.1493 38.9265 17.173C38.8914 17.1966 38.8657 17.2252 38.8494 17.2587C38.8331 17.2922 38.825 17.3306 38.825 17.374C38.825 17.4475 38.8481 17.5053 38.8943 17.5474C38.9405 17.5894 39.0046 17.6104 39.0865 17.6104C39.1555 17.6104 39.2189 17.5927 39.2768 17.5572C39.3264 17.5268 39.3768 17.4843 39.4279 17.4298L39.4534 17.4015V17.102ZM8.92762 17.102H8.74026C8.66089 17.102 8.59323 17.1079 8.53728 17.1198C8.48133 17.1316 8.43579 17.1493 8.40066 17.173C8.36553 17.1966 8.33984 17.2252 8.32357 17.2587C8.30731 17.2922 8.29918 17.3306 8.29918 17.374C8.29918 17.4475 8.32227 17.5053 8.36846 17.5474C8.41465 17.5894 8.47873 17.6104 8.5607 17.6104C8.62966 17.6104 8.69309 17.5927 8.75099 17.5572C8.80889 17.5217 8.86777 17.4698 8.92762 17.4015V17.102ZM37.0278 16.3986C36.9641 16.3986 36.9091 16.4146 36.8629 16.4468C36.8167 16.479 36.7797 16.522 36.7517 16.5759C36.7237 16.6298 36.7029 16.6899 36.6892 16.7562C36.6756 16.8225 36.6687 16.8905 36.6687 16.9601C36.6687 17.0337 36.6746 17.1053 36.6863 17.1749C36.698 17.2446 36.7172 17.3066 36.7439 17.3611C36.7705 17.4157 36.806 17.4593 36.8502 17.4922C36.8945 17.525 36.9504 17.5414 37.0181 17.5414C37.0519 17.5414 37.0848 17.5365 37.1166 17.5267C37.1485 17.5168 37.181 17.5007 37.2142 17.4784C37.2474 17.4561 37.2816 17.4268 37.3167 17.3907C37.3518 17.3546 37.3902 17.3102 37.4318 17.2577V16.6744C37.3616 16.5851 37.2943 16.5168 37.2298 16.4695C37.1654 16.4222 37.0981 16.3986 37.0278 16.3986ZM21.8219 16.3986C21.7582 16.3986 21.7032 16.4146 21.657 16.4468C21.6108 16.479 21.5738 16.522 21.5458 16.5759C21.5178 16.6298 21.497 16.6899 21.4833 16.7562C21.4697 16.8225 21.4628 16.8905 21.4628 16.9601C21.4628 17.0337 21.4687 17.1053 21.4804 17.1749C21.4921 17.2446 21.5113 17.3066 21.538 17.3611C21.5646 17.4157 21.6001 17.4593 21.6443 17.4922C21.6886 17.525 21.7445 17.5414 21.8122 17.5414C21.846 17.5414 21.8789 17.5365 21.9107 17.5267C21.9426 17.5168 21.9752 17.5007 22.0083 17.4784C22.0415 17.4561 22.0757 17.4268 22.1108 17.3907C22.1459 17.3546 22.1843 17.3102 22.2259 17.2577V16.6744C22.1557 16.5851 22.0884 16.5168 22.0239 16.4695C21.9595 16.4222 21.8922 16.3986 21.8219 16.3986ZM32.5631 15.8527H32.5611L32.204 16.9365H32.9202L32.5631 15.8527ZM4.46675 16.3296C4.4043 16.3296 4.34998 16.3414 4.30379 16.3651C4.2576 16.3887 4.21921 16.4206 4.18864 16.4606C4.15806 16.5007 4.13464 16.548 4.11838 16.6025C4.10211 16.657 4.09268 16.7151 4.09008 16.7769H4.82391C4.82782 16.6376 4.80017 16.5283 4.74097 16.4488C4.68176 16.3693 4.59036 16.3296 4.46675 16.3296ZM13.6653 15.3122C13.7746 15.3122 13.8488 15.3309 13.8878 15.3684C13.9268 15.4058 13.9464 15.4725 13.9464 15.5684C13.9464 15.6682 13.9262 15.7372 13.8859 15.7753C13.8455 15.8134 13.7707 15.8324 13.6614 15.8324C13.5508 15.8324 13.4763 15.8141 13.4379 15.7773C13.3996 15.7405 13.3804 15.6741 13.3804 15.5782C13.3804 15.4784 13.4002 15.4091 13.4399 15.3704C13.4796 15.3316 13.5547 15.3122 13.6653 15.3122ZM23.4942 15.2399C23.6035 15.2399 23.6777 15.2586 23.7167 15.2961C23.7557 15.3335 23.7752 15.4002 23.7752 15.4961C23.7752 15.5959 23.7551 15.6649 23.7147 15.703C23.6744 15.7411 23.5996 15.7601 23.4903 15.7601C23.3797 15.7601 23.3052 15.7417 23.2668 15.7049C23.2284 15.6681 23.2092 15.6018 23.2092 15.5059C23.2092 15.4061 23.2291 15.3368 23.2688 15.298C23.3085 15.2593 23.3836 15.2399 23.4942 15.2399ZM27.2559 15.2399C27.3652 15.2399 27.4393 15.2586 27.4784 15.2961C27.5174 15.3335 27.5369 15.4002 27.5369 15.4961C27.5369 15.5959 27.5168 15.6649 27.4764 15.703C27.4361 15.7411 27.3613 15.7601 27.252 15.7601C27.1414 15.7601 27.0669 15.7417 27.0285 15.7049C26.9901 15.6681 26.9709 15.6018 26.9709 15.5059C26.9709 15.4061 26.9908 15.3368 27.0305 15.298C27.0701 15.2593 27.1453 15.2399 27.2559 15.2399ZM29.9095 15.2399C30.0188 15.2399 30.0929 15.2586 30.132 15.2961C30.171 15.3335 30.1905 15.4002 30.1905 15.4961C30.1905 15.5959 30.1704 15.6649 30.13 15.703C30.0897 15.7411 30.0149 15.7601 29.9056 15.7601C29.795 15.7601 29.7205 15.7417 29.6821 15.7049C29.6437 15.6681 29.6245 15.6018 29.6245 15.5059C29.6245 15.4061 29.6444 15.3368 29.6841 15.298C29.7237 15.2593 29.7989 15.2399 29.9095 15.2399ZM6.22485 0C7.86439 0 9.61553 0.422838 11.2879 1.22496L11.3308 1.24424L11.3507 1.28809C12.1258 2.93896 12.5345 4.71145 12.5345 6.4174C12.5345 8.07959 12.1589 9.74132 11.416 11.3573L11.3455 11.5084L11.3024 11.5285C9.75841 12.2663 8.01736 12.6568 6.26778 12.6568C4.61631 12.6568 2.91921 12.2463 1.22435 11.4341L1.18273 11.4135L1.16287 11.3707C0.402279 9.74968 0 7.97674 0 6.24213C0 4.51011 0.385744 2.81301 1.14689 1.19416L1.1678 1.15115L1.21016 1.12973C2.77809 0.379819 4.46468 0 6.22485 0ZM6.22485 0.26765C4.52074 0.26765 2.88739 0.632534 1.36694 1.35249C0.637103 2.9215 0.265613 4.56564 0.265613 6.24213C0.265613 7.92169 0.651612 9.6399 1.3812 11.2118C3.02768 11.9938 4.66983 12.3887 6.26778 12.3887C7.96207 12.3887 9.64709 12.0147 11.1471 11.3059C11.8923 9.70721 12.2699 8.06177 12.2699 6.4174C12.2699 4.76621 11.8757 3.04881 11.13 1.44642C9.50706 0.676097 7.81198 0.26765 6.22485 0.26765ZM5.79804 10.6916L6.18715 10.7086C6.37107 10.7178 6.41916 10.8693 6.41345 11.0141C6.40804 11.102 6.3809 11.2003 6.30498 11.2535C6.24267 11.2989 6.16258 11.3096 6.08845 11.3059L5.96162 11.2989L5.93631 11.7275L5.73708 11.7142L5.79804 10.6916ZM31.0491 1.00194L33.1809 2.13791L31.6344 4.97202C31.0507 4.49338 30.3379 4.14121 29.4285 4.14121C27.2764 4.14121 26.4021 5.76084 26.4021 6.9018C26.4021 7.74878 26.9514 8.99825 28.8663 8.99825C29.67 8.99825 30.8127 8.43374 31.1416 8.17683L29.6122 11.4648L29.4073 11.5072L28.9543 11.6053C28.6511 11.6697 28.4127 11.7099 28.0263 11.722C24.5989 11.8253 23.2139 9.69941 23.2149 7.52731C23.2173 4.65562 25.7459 1.1634 29.9379 1.1634C30.1948 1.1634 30.509 1.2531 30.7776 1.35249L31.0491 1.00194ZM7.64427 10.6747C7.68331 10.7227 7.69831 10.7632 7.70712 10.8214L7.71017 10.844C7.72285 10.9316 7.69774 11.0328 7.60013 11.0831V11.0863C7.70911 11.0863 7.77501 11.1654 7.79414 11.2989L7.79845 11.3447C7.80084 11.3765 7.80214 11.4165 7.79695 11.452C7.77479 11.5871 7.69492 11.6307 7.56005 11.6498L7.22675 11.6954L7.08781 10.6713L7.42338 10.6199C7.50504 10.6087 7.60448 10.6231 7.64427 10.6747ZM4.84238 10.5844L5.04652 10.6079L4.95605 11.3302L4.95365 11.3553C4.94871 11.4234 4.959 11.4975 5.0659 11.5084C5.18446 11.5175 5.21134 11.4382 5.22476 11.3395L5.31136 10.6413L5.51385 10.6651L5.42656 11.3802C5.38417 11.607 5.29739 11.706 5.05039 11.6751C4.79901 11.643 4.73932 11.5274 4.75454 11.2989L4.84238 10.5844ZM3.70203 11.4314L3.92033 10.4141L4.26939 10.4937C4.47371 10.5383 4.53545 10.6301 4.50655 10.8192C4.49086 10.922 4.4425 11.0323 4.32741 11.0356L4.3109 11.0351L4.32456 11.0403C4.41046 11.0762 4.4224 11.1262 4.40903 11.2064L4.4058 11.224C4.3975 11.265 4.34067 11.5136 4.37994 11.5537L4.38123 11.5843L4.16937 11.5285C4.16449 11.4902 4.17158 11.4349 4.18088 11.3816L4.21023 11.2253C4.21886 11.1721 4.22037 11.1138 4.17245 11.0886C4.12468 11.0629 4.10687 11.0641 4.05289 11.0516L3.99782 11.0404L3.90687 11.4761L3.70203 11.4314ZM8.58225 10.6425L8.58933 10.6661C8.59657 10.6914 8.6056 10.7164 8.609 10.7419L8.42505 10.7803L8.41208 10.7402L8.40249 10.7131C8.38172 10.6586 8.35056 10.6054 8.293 10.612C8.14445 10.6301 8.19356 10.8166 8.20881 10.8946L8.26934 11.2004C8.28779 11.2841 8.32592 11.3927 8.44209 11.3691C8.54646 11.3479 8.50098 11.1839 8.49172 11.1166L8.68028 11.0795C8.68287 11.0985 8.68595 11.1197 8.68701 11.1387C8.71417 11.3255 8.68028 11.4802 8.4723 11.5227C8.17417 11.5806 8.10977 11.4012 8.05689 11.144L8.02306 10.9736L8.01232 10.9048L8.00649 10.8608C7.98249 10.6592 8.00798 10.5106 8.26227 10.4595C8.42319 10.4299 8.53211 10.49 8.58225 10.6425ZM7.42934 11.1974L7.35595 11.2088L7.40246 11.5177L7.48235 11.5067C7.50843 11.5028 7.53336 11.4974 7.55438 11.4838C7.60272 11.452 7.5983 11.3839 7.59157 11.3333C7.57478 11.2222 7.54612 11.18 7.42934 11.1974ZM16.8663 1.09085L19.731 1.08686L20.8347 1.08909C20.9504 1.08958 21.0586 1.09017 21.1574 1.09085C22.7714 1.09997 23.6834 1.98454 23.6834 3.26218C23.6834 4.44018 22.7215 5.48277 21.6656 6.02192C22.7527 6.42545 22.8467 7.41591 22.8467 8.11653C22.8468 9.80951 21.1644 11.3913 18.9773 11.3913H14.2078L16.0683 4.13837L15.3041 4.1339L16.8663 1.09085ZM39.5621 1.09085L40 11.3913H36.7409L36.7389 9.62477H34.5166L33.7852 11.3913H30.2506L33.9459 4.03584L33.1126 4.0304L34.6959 1.09085H39.5621ZM9.15876 10.2534L9.67678 11.1752L9.48226 11.2339L9.35953 10.9997L9.14355 11.0652L9.17142 11.3315L8.97536 11.3894L8.91177 10.3296L9.15876 10.2534ZM3.31498 10.2359C3.47285 10.2805 3.57075 10.3507 3.5661 10.5359C3.56534 10.5772 3.55188 10.6192 3.5431 10.6598L3.35944 10.6087L3.36659 10.5771C3.38512 10.4898 3.38555 10.4212 3.27391 10.3865C3.12971 10.3465 3.09463 10.5231 3.07471 10.5993L2.99325 10.902L2.98674 10.9306C2.97109 11.0091 2.97268 11.1029 3.07471 11.1312C3.17962 11.1596 3.24319 11.0558 3.28115 10.904L3.15275 10.8695L3.19715 10.7089L3.49918 10.8069L3.35582 11.3425L3.21682 11.3044L3.24808 11.1911H3.24418C3.1801 11.2837 3.10206 11.2934 3.03364 11.2802C2.74994 11.2027 2.76053 11.0221 2.82262 10.7797L2.87346 10.5881L2.8945 10.5217L2.90883 10.4798C2.97687 10.2886 3.06466 10.1667 3.31498 10.2359ZM5.98612 10.8472L5.96732 11.1429L6.07038 11.1487C6.15409 11.1518 6.20961 11.1184 6.21685 10.9942C6.22098 10.875 6.17629 10.8547 6.06779 10.8499L5.98612 10.8472ZM7.40538 10.7634L7.30065 10.7803L7.33532 11.0427L7.37251 11.0388L7.40389 11.0338C7.44193 11.0273 7.48267 11.0166 7.50216 10.9835L7.51114 10.965C7.52144 10.9431 7.52968 10.9186 7.52103 10.8693C7.5082 10.7991 7.48583 10.7539 7.40538 10.7634ZM4.09008 10.6079L4.03267 10.8828L4.17065 10.9204C4.25437 10.9326 4.30088 10.8888 4.31744 10.7866C4.3324 10.6929 4.31302 10.6564 4.23787 10.6382L4.09008 10.6079ZM9.07428 10.4196L9.12545 10.8941L9.2815 10.8484L9.07428 10.4196ZM6.14416 1.15093L6.19791 1.14975L6.21129 1.14992C7.27952 1.16753 8.19427 1.88833 8.19024 3.12446C8.18837 4.17699 7.35082 4.74043 7.04901 5.14293C6.59667 5.74936 6.34323 6.43985 6.32693 7.5385L6.32301 7.89075L6.3214 8.21113C6.32039 8.60734 6.32286 8.98102 6.32554 9.25821L6.32952 9.60882H6.08976L6.08098 8.46931L6.07805 8.22056C6.07528 8.00893 6.07158 7.78764 6.06653 7.56564C6.0412 6.46721 5.7965 5.74936 5.34438 5.14293C5.0452 4.74043 4.20685 4.17696 4.20344 3.12446C4.20021 1.90398 5.09241 1.18586 6.14416 1.15093ZM8.82638 4.27376L8.85395 4.27661C9.48563 4.33191 10.0144 4.592 10.2994 5.3401C10.5627 6.03732 10.3258 6.96464 9.45096 7.18219L9.30985 7.21785L9.16717 7.25499C8.40035 7.45781 7.9259 7.63922 7.57094 7.88466C7.08646 8.22039 6.71834 8.86208 6.70696 9.60781L6.50053 9.60704L6.50009 8.03328L6.50329 7.69855C6.50429 7.64649 6.50551 7.60843 6.507 7.58808C6.4965 5.60168 7.91164 4.19465 8.82638 4.27376ZM10.2377 6.96859C10.4764 7.2104 10.5196 7.75395 10.4777 8.0717C10.4281 8.43923 10.0036 9.04515 9.36418 9.06889C9.03808 9.08218 8.63816 9.01421 8.37733 8.96177L8.23953 8.93301C7.83184 8.8438 7.1826 9.10252 7.07903 9.60704L6.89161 9.60781C6.88832 8.96118 7.24562 8.38939 7.71148 8.08212C8.12766 7.81055 8.6847 7.63214 9.58141 7.40233C9.85942 7.33062 10.1493 7.17149 10.2377 6.96859ZM5.88695 7.58808L5.8882 7.61026L5.89079 7.70151C5.89478 7.90818 5.89533 8.33 5.89502 8.74133L5.89392 9.60704L5.71328 9.60781C5.70277 8.86208 5.30693 8.22039 4.82197 7.88466C4.4262 7.61028 3.87922 7.41591 2.94272 7.18219C2.06683 6.96464 1.83127 6.03732 2.09476 5.3401C2.37315 4.60727 2.88681 4.34273 3.50145 4.28026L3.54 4.27661C4.45279 4.16628 5.89777 5.58162 5.88695 7.58808ZM2.15496 6.96859C2.24485 7.17149 2.53503 7.33062 2.81246 7.40233L3.03587 7.46038L3.18127 7.4993C3.86809 7.68572 4.32647 7.84985 4.68092 8.08212C5.13695 8.38208 5.4885 8.9341 5.50214 9.56175L5.50253 9.60781L5.31366 9.60704C5.21272 9.11304 4.58987 8.85469 4.17975 8.92789L4.05799 8.95319L3.96601 8.97164C3.70614 9.02229 3.33679 9.08136 3.03079 9.06889C2.39004 9.04515 1.96454 8.43923 1.91597 8.0717C1.87413 7.75395 1.91729 7.2104 2.15496 6.96859ZM19.3867 7.08726H18.2333L17.7968 8.78015H18.9134C19.3525 8.78015 19.9512 8.55998 20.0979 8.00905C20.2428 7.45661 19.8243 7.08726 19.3867 7.08726ZM36.7178 4.24193L35.4613 7.23802H36.7558L36.7178 4.24193ZM19.0394 3.79794L18.7087 5.26703H19.5739C19.9078 5.26703 20.4973 5.18174 20.6446 4.52938C20.8061 3.82116 20.2529 3.80211 19.9876 3.80211L19.0394 3.79794Z" fill="#0F60AD"/>
</g>
<defs>
<clipPath id="clip0_297_1493">
<rect width="40" height="18" fill="white"/>
</clipPath>
</defs>
</svg>
