<svg width="22" height="16" viewBox="0 0 22 16" fill="none" xmlns="http://www.w3.org/2000/svg">
<path d="M20.85 4.85001V12.85C20.85 13.9546 19.9546 14.85 18.85 14.85H2.84998C1.74541 14.85 0.849976 13.9546 0.849976 12.85V2.85001C0.849976 1.74544 1.74541 0.850006 2.84998 0.850006H18.85C19.9546 0.850006 20.85 1.74544 20.85 2.85001V4.85001ZM20.85 4.85001H4.84998" stroke="#6F6964" stroke-width="1.7" stroke-linecap="round" stroke-linejoin="round"/>
<path d="M15.35 9.23191C15.6154 8.99441 15.9658 8.85001 16.35 8.85001C17.1784 8.85001 17.85 9.52161 17.85 10.35C17.85 11.1784 17.1784 11.85 16.35 11.85C15.9658 11.85 15.6154 11.7056 15.35 11.4681" stroke="#6F6964" stroke-width="1.7" stroke-linecap="round" stroke-linejoin="round"/>
<path d="M15.35 9.23191C15.0846 8.99441 14.7342 8.85001 14.35 8.85001C13.5216 8.85001 12.85 9.52161 12.85 10.35C12.85 11.1784 13.5216 11.85 14.35 11.85C14.7342 11.85 15.0846 11.7056 15.35 11.4681" stroke="#6F6964" stroke-width="1.7" stroke-linecap="round" stroke-linejoin="round"/>
</svg>
